<?xml version="1.0" encoding="utf-8"?>
<!-- Generator: Adobe Illustrator 18.0.0, SVG Export Plug-In . SVG Version: 6.00 Build 0)  -->
<!DOCTYPE svg PUBLIC "-//W3C//DTD SVG 1.1//EN" "http://www.w3.org/Graphics/SVG/1.1/DTD/svg11.dtd">
<svg version="1.1" id="Layer_1" xmlns="http://www.w3.org/2000/svg" xmlns:xlink="http://www.w3.org/1999/xlink" x="0px" y="0px"
	 viewBox="0 0 640 480" enable-background="new 0 0 640 480" xml:space="preserve">
<path fill="#FF0000" d="M184.7,313.3c-2.5,0-4.8-1-6.8-2.8C162,295.9,156,271.7,161,244c6-33,26-60.5,50.9-70.3
	c5.3-2,11.1,0.5,13.1,5.8c2,5.3-0.5,11.1-5.8,13.1c-18.1,7.3-33.5,29.5-38.3,55.2c-3.8,20.4,0.3,38.3,10.6,47.9
	c4,3.8,4.3,10.1,0.5,14.4C190.2,312.3,187.5,313.3,184.7,313.3z"/>
<path fill="#FF0000" d="M428.3,182.3c-0.8,0-1.8,0-2.8-0.3c-5.3-1.5-8.6-7.1-7.1-12.3c3.5-13.1,0.3-24.2-10.1-33.8
	c-27-25.4-95.2-33.5-143.1-17.1c-18.6,6.3-41.8,19.1-45.6,43.3c-1,5.5-6,9.3-11.6,8.3c-5.5-1-9.3-6-8.3-11.6
	c4.3-26.7,25.2-47.6,59.2-59.2c55.7-19.1,130.5-9.3,163.3,21.4c15.9,14.9,21.4,33.5,15.9,53.9C436.9,179.3,432.6,182.3,428.3,182.3z
	"/>
<path fill="#FF0000" d="M231.8,183.8c-1.5,0-3-0.3-4.5-1c-5-2.5-7.1-8.6-4.5-13.6c17.1-35,48.9-56.4,86.7-59
	c40.6-2.5,80.4,18.4,104.3,54.4c3,4.8,1.8,11.1-2.8,14.1c-4.8,3-10.8,1.8-14.1-2.8c-20.2-30.5-52.2-47.4-86.2-45.4
	c-30.5,2-55.9,19.4-69.8,47.6C239.1,181.8,235.6,183.8,231.8,183.8z"/>
<path fill="#FF0000" d="M365.9,278.6c-14.1,0-27.7-2-40.1-6.3c-5.3-1.8-8.1-7.6-6.3-12.9c1.8-5.3,7.6-8.1,12.9-6.3
	c47.6,16.4,117.9-9.3,163.3-40.3c4.5-3.3,10.8-2,14.1,2.8c3,4.5,2,10.8-2.8,14.1C467.7,256.4,413.5,278.6,365.9,278.6z"/>
<path fill="#FF0000" d="M349.2,303c-10.6,0-20.9-0.5-30.5-1.3c-5.5-0.5-9.8-5.3-9.3-10.8c0.5-5.5,5.3-9.6,10.8-9.3
	c66.5,5.3,156.2-6.3,190.2-56.4c3-4.5,9.3-5.8,14.1-2.8c4.5,3,5.8,9.3,2.8,14.1C493.6,286.1,416.3,303,349.2,303z"/>
<path fill="#FF0000" d="M374.2,246.6c-17.1,0-34-1.3-49.9-2.8c-5.5-0.5-9.6-5.5-9.1-11.1s5.5-9.6,11.1-9.1
	c49.9,5,111.6,6.6,146.1-26.2c4-3.8,10.3-3.8,14.4,0.3c3.8,4,3.8,10.6-0.3,14.4C457.6,239.2,415.5,246.6,374.2,246.6z"/>
<path fill="#FF0000" d="M369.6,220.9c-14.4,0-28.2-1.5-39.8-4.3c-5.5-1.3-8.8-6.6-7.8-12.1c1.3-5.5,6.6-8.8,12.1-7.8
	c34.5,7.6,82.6,4.5,112.9-19.4c4.3-3.5,10.8-2.8,14.1,1.8c3.5,4.3,2.8,10.8-1.8,14.1C433.9,213.5,400.1,220.9,369.6,220.9z"/>
<path fill="#FF0000" d="M287.2,442.8c-3.8,0-7.3-2-9.1-5.8l-1.3-2.5c-18.1-37.8-32.8-67.5-10.1-111.9c1.5-2.8,3-6,4.8-9.1
	c11.6-21.7,25.7-48.6,13.4-68.3c-2.3-3.8-4.8-5.8-6.3-5.8c-7.8,0.8-22.7,23.7-32,48.9c-2,5.3-7.8,8.1-12.9,6c-5.3-2-7.8-7.8-6-13.1
	c5-13.9,23.7-59.5,48.9-62.2c6.8-0.8,16.9,1.3,25.4,15.1c18.6,29.7,0.8,63.7-12.6,88.7c-1.5,3-3.3,6-4.5,8.8
	c-17.9,35.3-7.3,57.4,10.3,93.7l1.3,2.5c2.5,5,0.3,11.1-4.8,13.6C290.3,442.6,288.8,442.8,287.2,442.8z"/>
<path fill="#FF0000" d="M213.7,311.8c-3.3,0-6.6-1.8-8.6-4.8c-14.1-22.4-17.4-46.6-8.6-68.3c10.3-25.7,36.3-46.1,69.5-54.2
	c5.3-1.3,10.8,2,12.1,7.6c1.3,5.5-2,10.8-7.3,12.3c-27,6.6-47.9,22.2-55.7,41.8c-6.3,15.6-3.8,32.8,6.8,49.9c3,4.8,1.5,11.1-3,14.1
	C217.4,311.3,215.4,311.8,213.7,311.8z"/>
<path fill="#FF0000" d="M155,311.8c-2.8,0-5.5-1.3-7.6-3.5c-19.1-21.7-26-42.3-23.9-71.3c2.3-26.5,22.7-67.5,55.7-75.6
	c5.3-1.3,10.8,2,12.3,7.3c1.3,5.5-2,10.8-7.3,12.3c-22.7,5.5-38.8,37.3-40.6,57.4c-1.8,23.4,3.3,38.8,18.6,56.4
	c3.8,4.3,3.3,10.6-1,14.4C159.5,310.8,157.2,311.8,155,311.8z"/>
<path fill="#FF0000" d="M301.1,212c-4.8,0-8.8-3.3-9.8-8.1c-2.3-10.8,1.5-17.9,5-21.9c10.1-11.6,29.7-11.1,35.5-10.6
	c5.5,0.5,9.8,5.3,9.3,10.8c-0.5,5.5-5.3,9.8-10.8,9.3c-8.3-0.5-16.4,1-18.6,3.8c-0.3,0.3-1,1.3-0.5,4.3c1.3,5.5-2.3,10.8-7.8,12.1
	C302.6,212,301.9,212,301.1,212z"/>
<path fill="#FF0000" d="M109.4,217.3c-4.3,0-8.1-2.8-9.6-7.1c-8.8-26.7,0-56.2,21.7-71.8c19.9-14.1,45.4-13.1,66.5,3
	c4.5,3.3,5.3,9.8,2,14.1c-3.3,4.5-9.6,5.3-14.1,2c-14.4-10.8-29.7-11.8-42.6-2.8c-11.8,8.6-21.4,27.5-14.1,48.9
	c1.8,5.3-1,11.1-6.3,12.9C111.6,217.1,110.4,217.3,109.4,217.3z"/>
<path fill="#FF0000" d="M217.7,340.5c0-3,0.3-6.3,1-9.1c-113.9-9.8-173.1-35.3-173.1-50.4c0-9.1,21.2-21.7,62.2-32.5
	c-2.5-6.3-3.3-13.4-2.8-20.2C58,240,25.2,257.1,25.2,281.1c0,40.6,95.7,62,193,70.3C218,347.8,217.7,344.1,217.7,340.5z M551.8,235
	c-0.3,7.1-2,13.9-5,19.7c27.5,9.3,41.6,19.1,41.6,26.5c0,18.6-90.5,53.2-262.8,54.4c2,6.6,2.5,13.6,1.5,20.4
	c116.9-1,281.4-21.4,281.4-74.6C608.5,261.4,585.8,246.3,551.8,235z M223,382.6c-0.8-3.3-1.5-6.6-2-10.1
	c-102.6-9.1-161-30.2-172.6-45.9c-7.3,1.5-14.6,2.3-21.7,2C38,366,133.3,385.6,228,393.4C225.8,390.2,224,386.6,223,382.6z
	 M599.2,321.6c-0.8,19.1-92.7,53.9-267.8,55.2c2,6.6,2.5,13.9,1.8,20.7c119.2-1.3,287-21.9,287-76.1c0-1-0.3-1.8-0.5-2.8
	C612.5,319.9,606,320.9,599.2,321.6z"/>
<path fill="#FF0000" stroke="#FFFFFF" stroke-width="12" stroke-miterlimit="10" d="M166.3,143c23.7,0,42.8,19.1,42.8,42.8
	s-19.1,42.8-42.8,42.8s-42.8-19.1-42.8-42.8S142.6,143,166.3,143z"/>
<path fill="#FF0000" stroke="#FFFFFF" stroke-width="12" stroke-miterlimit="10" d="M320,135c-27.7,0-50.4-22.7-50.4-50.4
	s22.7-50.4,50.4-50.4s50.4,22.7,50.4,50.4S347.7,135,320,135z"/>
<path fill="#FF0000" d="M231.8,183.8c-1.5,0-3-0.3-4.5-1c-5-2.5-7.1-8.6-4.5-13.6c17.1-35,48.9-56.4,86.7-59
	c40.6-2.5,80.4,18.4,104.3,54.4c3,4.8,1.8,11.1-2.8,14.1c-4.8,3-10.8,1.8-14.1-2.8c-20.2-30.5-52.2-47.4-86.2-45.4
	c-30.5,2-55.9,19.4-69.8,47.6C239.1,181.8,235.6,183.8,231.8,183.8z"/>
<path fill="#FF0000" d="M184.7,313.3c-2.5,0-4.8-1-6.8-2.8C162,295.9,156,271.7,161,244c6-33,26-60.5,50.9-70.3
	c5.3-2,11.1,0.5,13.1,5.8c2,5.3-0.5,11.1-5.8,13.1c-18.1,7.3-33.5,29.5-38.3,55.2c-3.8,20.4,0.3,38.3,10.6,47.9
	c4,3.8,4.3,10.1,0.5,14.4C190.2,312.3,187.5,313.3,184.7,313.3z"/>
<path fill="#FF0000" d="M374.4,192.6c-4.5,0-8.6-3-9.8-7.6c-5-19.4-29.7-29.5-50.6-27.7c-7.3,0.5-30.7,3.8-33.5,26.5
	c-0.8,5.5-5.8,9.6-11.1,8.8c-5.5-0.8-9.6-5.8-8.8-11.3c3-25.2,22.9-42.3,52.2-44.3c28.7-2,63.7,12.3,71.8,42.8
	c1.5,5.3-1.8,10.8-7.3,12.3C376.2,192.6,375.2,192.6,374.4,192.6z"/>
<path fill="#FF0000" stroke="#FFFFFF" stroke-width="12" stroke-miterlimit="10" d="M415.7,178.3c23.7,0,42.8,19.1,42.8,42.8
	s-19.1,42.8-42.8,42.8c-23.7,0-42.8-19.1-42.8-42.8S392.1,178.3,415.7,178.3z"/>
<path fill="#FF0000" d="M365.9,278.6c-14.1,0-27.7-2-40.1-6.3c-5.3-1.8-8.1-7.6-6.3-12.9c1.8-5.3,7.6-8.1,12.9-6.3
	c47.6,16.4,117.9-9.3,163.3-40.3c4.5-3.3,10.8-2,14.1,2.8c3,4.5,2,10.8-2.8,14.1C467.7,256.4,413.5,278.6,365.9,278.6z"/>
</svg>
